<?xml version="1.0" standalone="no"?>
<!DOCTYPE svg PUBLIC "-//W3C//DTD SVG 20010904//EN"
 "http://www.w3.org/TR/2001/REC-SVG-20010904/DTD/svg10.dtd">
<svg version="1.0" xmlns="http://www.w3.org/2000/svg"
 width="600.000000pt" height="600.000000pt" viewBox="0 0 600.000000 600.000000"
 preserveAspectRatio="xMidYMid meet">

<g transform="translate(0.000000,600.000000) scale(0.100000,-0.100000)"
fill="#000000" stroke="none">
<path d="M825 5956 c-84 -27 -145 -75 -179 -143 -24 -48 -19 -54 7 -8 27 48
113 110 181 130 43 13 172 15 856 15 1305 0 1220 1 1182 -15 -72 -32 -145
-109 -147 -158 -1 -12 -5 -38 -9 -57 l-7 -35 -782 3 c-483 2 -807 -1 -846 -7
-88 -14 -146 -51 -185 -121 l-31 -55 -3 -518 c-2 -352 1 -536 8 -572 14 -68
56 -126 117 -162 l48 -28 833 -3 833 -3 0 -1962 c1 -2242 0 -2018 9 -2012 3 2
16 -16 28 -40 26 -54 20 -60 -7 -7 -11 20 -20 30 -20 22 -1 -31 55 -115 98
-147 l43 -33 -1013 2 c-951 3 -1016 4 -1049 21 -91 46 -116 67 -144 122 -9 17
-16 23 -16 14 0 -9 15 -39 33 -65 23 -36 48 -57 91 -79 l60 -30 1210 -6 c2300
-12 3079 -11 3138 5 77 20 109 36 146 73 37 37 76 117 68 138 -3 8 -1 29 5 47
6 20 9 594 9 1496 0 981 3 1461 10 1457 7 -4 10 49 10 155 0 105 -3 159 -10
155 -6 -4 -10 35 -10 109 0 71 4 116 10 116 7 0 10 134 9 383 0 220 -4 374 -9
362 -5 -11 -9 234 -9 567 -1 384 -4 596 -11 614 -6 15 -8 34 -5 42 9 24 -55
130 -99 163 -48 35 -123 59 -180 58 -35 -1 -38 -2 -16 -9 14 -4 -456 -8 -1045
-8 -676 0 -1055 3 -1031 9 22 5 42 11 44 14 3 2 -488 4 -1089 4 -858 0 -1103
-3 -1134 -13z m1972 -105 c-19 -22 -41 -49 -47 -61 -6 -12 -14 -19 -17 -16
-12 12 73 116 95 116 3 0 -12 -18 -31 -39z m2352 6 c66 -26 128 -82 162 -145
25 -49 29 -52 23 -23 -4 23 -3 31 5 27 15 -9 15 -5454 1 -5476 -7 -10 -9 7 -5
55 l5 70 -25 -49 c-26 -52 -43 -74 -31 -41 4 11 10 54 12 95 3 41 7 81 9 88 3
8 0 10 -7 6 -8 -5 -9 -2 -4 12 5 10 8 26 7 34 -1 8 -1 24 -2 35 0 11 -6 30
-14 42 -14 20 -14 22 2 16 15 -6 16 -4 5 9 -7 8 -9 24 -5 33 4 13 3 16 -5 11
-7 -4 -12 -3 -12 3 0 5 5 13 11 17 8 4 7 9 -2 15 -10 6 -10 13 -1 33 6 14 8
26 3 26 -12 0 -9 33 4 43 7 5 7 10 0 15 -14 10 -17 32 -4 32 6 0 9 7 6 15 -4
8 -2 17 3 20 13 8 1 58 -17 68 -7 5 -11 12 -8 18 3 5 -1 6 -10 2 -10 -3 -21 0
-26 8 -7 11 -12 12 -29 1 -14 -8 -20 -9 -20 -1 0 6 -8 9 -19 6 -13 -3 -18 0
-16 12 1 9 0 10 -2 3 -3 -7 -8 -10 -13 -7 -5 3 -12 0 -16 -6 -4 -8 -3 -9 4 -5
7 4 12 2 12 -3 0 -14 -31 -14 -65 -1 -14 5 -24 6 -21 1 3 -4 -6 -18 -20 -30
-22 -19 -26 -20 -40 -6 -14 13 -14 15 3 15 15 0 15 2 3 9 -8 6 -18 7 -22 5 -4
-3 -8 3 -8 13 0 10 -9 31 -19 47 -11 17 -18 33 -15 37 2 4 0 10 -5 14 -7 3 -7
15 -1 30 7 19 6 23 -5 18 -8 -3 -12 -10 -9 -17 3 -6 -1 -3 -10 7 -8 11 -12 25
-9 33 3 8 0 14 -7 14 -8 0 -11 9 -8 24 3 16 0 27 -9 30 -8 3 -13 11 -12 18 1
7 -1 21 -6 31 -4 9 -5 26 -2 36 3 12 -1 18 -12 17 -10 -1 -17 8 -19 27 -2 15
-8 27 -13 27 -5 0 -9 9 -9 20 0 11 -4 20 -9 20 -5 0 -12 13 -16 29 -3 16 -13
35 -21 41 -7 7 -12 16 -9 20 3 5 -4 11 -15 15 -11 3 -20 12 -20 19 0 7 -9 22
-20 34 -11 12 -20 26 -20 31 0 6 -7 8 -15 5 -8 -4 -15 -2 -15 3 0 6 -14 10
-31 11 -17 0 -46 12 -64 26 -19 14 -40 26 -48 26 -8 0 -31 7 -52 16 -27 11
-35 19 -31 32 5 14 4 14 -8 -2 -17 -21 -58 -16 -87 10 -9 8 -29 17 -45 20 -16
2 -40 7 -54 11 -14 3 -44 6 -67 7 -36 1 -49 8 -85 45 -24 25 -38 42 -33 38 6
-3 17 -2 25 3 13 8 11 13 -7 32 -13 12 -23 18 -23 12 0 -6 -7 -11 -15 -11 -8
0 -15 6 -15 14 0 7 -7 13 -15 13 -20 0 -39 37 -22 43 9 3 9 8 -2 21 -12 14
-12 16 3 10 22 -9 20 9 -3 23 -15 10 -21 10 -25 0 -4 -7 -4 0 -1 16 3 15 1 27
-5 27 -5 0 -10 -4 -10 -10 0 -24 -21 -7 -38 30 -10 22 -21 37 -25 34 -4 -4 -7
0 -7 9 0 19 -28 49 -40 42 -5 -3 -7 3 -5 14 4 23 -26 91 -49 110 -9 7 -14 17
-11 21 3 4 -2 11 -11 14 -8 3 -12 10 -9 16 4 6 11 8 16 5 13 -9 10 6 -7 35
-14 23 -14 23 -9 3 5 -18 3 -22 -10 -17 -9 4 -14 12 -11 19 2 7 -1 18 -7 25
-9 10 -9 11 1 6 16 -9 17 30 0 40 -7 4 -8 3 -4 -4 4 -7 3 -12 -2 -12 -14 0
-31 46 -25 69 3 13 1 21 -6 21 -7 0 -9 5 -5 12 4 6 1 16 -7 22 -29 23 -47 61
-37 80 8 14 4 19 -21 29 -17 6 -31 17 -31 25 0 7 -6 15 -13 18 -15 6 -20 44
-5 44 5 0 12 -9 15 -20 8 -29 21 -25 16 4 -3 16 -13 26 -26 28 -12 2 -23 11
-25 21 -2 10 2 16 10 15 14 -3 64 -48 66 -61 1 -4 7 -14 14 -21 11 -12 14 -12
21 1 6 10 2 22 -11 36 -23 27 -35 57 -22 57 6 0 10 -4 10 -8 0 -5 15 -9 34
-10 31 -1 34 2 39 31 5 37 -16 59 -50 53 -16 -2 -23 2 -24 13 0 10 -2 12 -6 3
-2 -6 -9 -9 -15 -6 -7 5 -9 -2 -4 -20 4 -18 3 -25 -4 -21 -5 3 -10 11 -10 16
0 14 -41 48 -58 49 -9 0 -11 -7 -7 -21 5 -15 4 -19 -4 -15 -6 4 -11 15 -11 24
0 12 -4 10 -13 -8 -8 -14 -19 -24 -26 -22 -9 2 -10 -5 -6 -20 l7 -23 -17 23
c-9 13 -23 21 -31 18 -8 -3 -11 0 -8 8 3 8 0 17 -6 21 -6 3 -9 3 -8 -2 2 -4 0
-9 -4 -10 -5 -2 -8 -1 -8 2 0 3 0 14 0 25 0 18 3 19 20 10 16 -9 18 -8 14 5
-10 24 -44 19 -44 -7 -1 -20 -6 -17 -41 22 -36 41 -39 43 -33 18 4 -18 2 -28
-5 -28 -6 0 -8 6 -5 13 6 17 -42 41 -52 26 -4 -6 -11 -6 -20 2 -11 9 -14 8
-14 -2 0 -9 -13 -15 -35 -16 -28 -2 -33 0 -28 13 5 13 7 13 14 2 6 -9 9 -10 9
-1 0 7 7 10 15 7 10 -4 15 0 15 11 0 11 6 15 18 12 9 -2 32 5 50 16 35 21 82
30 82 15 0 -5 9 -4 21 2 11 7 23 9 26 6 4 -3 12 -1 20 5 10 9 17 8 28 -1 8 -7
21 -10 29 -7 10 4 19 -4 25 -21 l11 -27 -5 26 c-4 23 0 28 23 34 15 4 38 9 52
10 14 1 36 4 50 8 14 4 68 9 120 12 52 3 101 6 108 7 14 2 17 18 2 18 -5 0
-10 4 -10 10 0 5 8 7 18 3 14 -5 13 -3 -3 10 -19 15 -19 16 -1 36 11 12 25 21
33 21 10 0 12 6 8 21 -5 15 -4 19 4 15 6 -4 11 -2 11 3 0 6 -5 11 -11 11 -6 0
-9 6 -6 14 7 18 -18 28 -47 21 -15 -4 -10 3 17 26 29 24 35 34 27 44 -14 17
-22 78 -10 70 6 -4 10 -4 10 -1 0 3 -8 10 -18 15 -12 6 -34 3 -72 -10 -57 -20
-84 -25 -62 -10 11 7 11 9 -2 14 -19 7 -22 31 -4 25 7 -3 19 1 26 9 7 7 24 13
37 13 13 0 27 5 30 10 8 13 45 13 45 -1 0 -6 5 -7 13 -2 6 4 22 6 35 4 20 -2
21 0 11 23 -7 14 -16 23 -22 19 -5 -3 -4 -9 4 -14 20 -12 8 -17 -21 -8 -14 4
-19 7 -12 8 6 1 12 10 12 21 0 22 -16 27 -22 8 -3 -8 -9 -8 -24 0 -18 11 -18
11 4 12 12 0 22 5 22 11 0 6 6 9 13 6 7 -2 17 5 23 17 9 20 8 22 -18 18 -16
-3 -28 0 -28 7 0 6 5 11 11 11 6 0 8 7 5 16 -3 8 -2 12 4 9 6 -4 18 2 27 11
17 16 16 17 -25 11 -31 -5 -42 -4 -42 5 0 7 -12 21 -26 32 -26 18 -27 18 -66
-3 -22 -11 -44 -21 -50 -21 -5 0 -17 -9 -26 -20 -10 -12 -35 -22 -62 -26 -34
-4 -41 -3 -30 5 13 10 13 12 0 21 -22 14 -40 12 -40 -5 0 -9 -10 -15 -26 -15
-17 0 -28 -6 -31 -20 -3 -11 -12 -20 -19 -20 -8 0 -14 -6 -14 -14 0 -21 -21
-31 -31 -15 -7 11 -9 10 -9 -3 0 -10 -11 -20 -25 -24 -21 -5 -23 -9 -14 -20
10 -12 9 -13 -5 -8 -10 4 -25 -1 -35 -10 -15 -14 -20 -14 -24 -4 -4 8 -6 7 -6
-4 -1 -10 -8 -18 -16 -18 -9 0 -12 6 -9 15 5 11 -1 15 -20 15 -14 0 -26 6 -26
13 0 7 -3 8 -8 2 -7 -10 -26 -15 -64 -18 -10 -1 -18 -5 -18 -10 0 -4 -4 -5
-10 -2 -18 11 -12 38 8 31 14 -5 14 -4 -2 9 -11 8 -14 15 -8 15 7 0 12 5 12
10 0 6 -9 10 -20 10 -11 0 -20 -4 -20 -9 0 -5 -9 -7 -20 -4 -12 3 -20 0 -20
-6 0 -7 -6 -11 -12 -9 -7 1 -28 -6 -45 -15 -48 -25 -40 -16 22 29 30 21 55 42
55 47 0 4 6 7 14 7 16 0 104 176 92 187 -10 11 -230 -99 -320 -160 -55 -37
-94 -67 -87 -67 7 0 9 -4 6 -10 -3 -5 -3 -10 2 -10 4 0 9 -14 9 -31 1 -17 7
-35 15 -41 12 -8 12 -10 0 -15 -11 -4 -11 -7 0 -13 7 -5 24 -3 39 5 l27 14
-24 -46 c-12 -26 -23 -58 -23 -72 0 -14 -6 -38 -14 -53 -19 -35 -14 -276 8
-460 2 -14 -7 -47 -20 -72 -22 -43 -23 -53 -18 -208 3 -90 9 -178 14 -197 5
-19 6 -39 3 -45 -4 -6 -7 -39 -8 -73 0 -46 3 -64 14 -68 11 -4 12 -8 3 -17
-14 -14 -16 -52 -3 -44 5 3 7 -17 4 -47 -2 -28 -5 -81 -7 -117 -2 -36 -7 -89
-11 -119 -5 -32 -4 -52 1 -49 5 4 10 -17 11 -45 2 -36 -1 -47 -7 -37 -6 9 -10
10 -10 3 0 -6 5 -15 11 -19 8 -4 9 -27 5 -69 -3 -35 -3 -65 2 -67 5 -1 5 -39
1 -83 -3 -44 -3 -81 2 -83 5 -2 4 -12 -1 -23 -8 -14 -6 -26 7 -46 17 -25 17
-27 1 -21 -13 5 -16 3 -11 -10 3 -9 10 -23 16 -30 6 -8 6 -12 -1 -12 -7 0 -9
-19 -7 -50 2 -34 0 -50 -8 -50 -8 0 -8 -3 -2 -8 12 -8 14 -62 3 -62 -5 0 -8
-5 -8 -11 0 -5 5 -7 12 -3 8 5 9 2 3 -12 -5 -10 -10 -53 -12 -94 -1 -41 -5
-88 -9 -104 -5 -19 -2 -31 7 -37 8 -5 9 -9 2 -9 -12 0 -13 -80 -1 -80 4 0 7
-10 5 -22 -1 -14 3 -22 10 -21 7 2 10 -4 7 -12 -4 -8 -10 -12 -15 -9 -5 3 -9
-6 -9 -20 0 -14 5 -28 11 -32 6 -3 9 -19 5 -35 -3 -16 -2 -29 2 -29 4 0 9 -12
10 -27 1 -19 -1 -24 -7 -15 -6 10 -9 8 -13 -10 -2 -12 -2 -32 0 -43 l5 -20 9
20 c7 16 7 15 2 -5 -4 -14 -7 -53 -8 -87 -1 -35 -3 -63 -6 -63 -11 0 -32 63
-40 122 -14 96 -13 5138 1 5213 23 124 89 201 208 242 l66 23 1040 -3 c967 -2
1043 -3 1084 -20z m161 -9 c22 -23 64 -98 58 -102 -2 -2 -22 26 -45 61 -44 67
-47 77 -13 41z m34 -103 c3 -8 1 -15 -4 -15 -6 0 -10 7 -10 15 0 8 2 15 4 15
2 0 6 -7 10 -15z m-2647 -312 c-1 -43 -3 -8 -3 77 0 85 2 120 3 78 2 -43 2
-113 0 -155z m-1517 53 c0 -2 -17 -14 -37 -25 l-38 -22 28 26 c25 22 47 32 47
21z m1120 -79 c0 -7 -9 -20 -20 -30 -11 -9 -20 -28 -20 -42 0 -18 -4 -23 -15
-19 -19 8 -20 54 -2 54 8 0 19 11 25 25 12 26 32 34 32 12z m8 -156 c-3 -103
-9 -133 -25 -118 -4 4 -1 13 5 19 7 7 12 19 12 28 0 11 -2 12 -8 2 -9 -13 -45
-12 -59 2 -4 4 -1 11 7 16 10 7 11 10 3 10 -18 0 -16 47 2 54 10 4 15 -1 15
-14 0 -11 2 -20 4 -20 2 0 13 -3 23 -7 16 -6 17 -5 3 12 -11 14 -12 19 -2 22
27 10 12 29 -20 25 l-33 -4 33 29 c25 23 30 31 20 41 -9 9 -8 12 6 12 16 0 17
-10 14 -109z m-468 86 c0 -8 -9 -22 -20 -32 -19 -18 -20 -17 -20 1 0 20 17 44
32 44 4 0 8 -6 8 -13z m-576 -16 c8 -12 -19 -45 -32 -38 -14 9 -3 47 14 47 7
0 15 -4 18 -9z m590 -26 c-6 -16 -24 -21 -24 -7 0 11 11 22 21 22 5 0 6 -7 3
-15z m-574 -49 c0 -3 -4 -8 -10 -11 -5 -3 -10 -1 -10 4 0 6 5 11 10 11 6 0 10
-2 10 -4z m1417 -73 c-2 -16 -4 -5 -4 22 0 28 2 40 4 28 2 -13 2 -35 0 -50z
m-20 35 c-3 -8 -6 -5 -6 6 -1 11 2 17 5 13 3 -3 4 -12 1 -19z m-417 -52 c0 -2
3 -12 7 -21 5 -15 3 -16 -15 -6 -25 13 -29 31 -7 31 8 0 15 -2 15 -4z m373
-26 c-3 -12 -8 -19 -11 -16 -5 6 5 36 12 36 2 0 2 -9 -1 -20z m64 -12 c-3 -8
-6 -5 -6 6 -1 11 2 17 5 13 3 -3 4 -12 1 -19z m-19 -89 c-3 -8 -7 -3 -11 10
-4 17 -3 21 5 13 5 -5 8 -16 6 -23z m19 -61 c-2 -18 -4 -6 -4 27 0 33 2 48 4
33 2 -15 2 -42 0 -60z m-20 -20 c-3 -7 -5 -2 -5 12 0 14 2 19 5 13 2 -7 2 -19
0 -25z m20 -80 c-3 -8 -6 -5 -6 6 -1 11 2 17 5 13 3 -3 4 -12 1 -19z m-1432
-190 c7 -6 4 -14 -8 -23 -22 -16 -50 -8 -43 12 3 8 1 11 -4 8 -11 -7 -14 8 -3
18 8 8 44 -1 58 -15z m35 -98 c0 -5 -4 -10 -10 -10 -5 0 -10 5 -10 10 0 6 5
10 10 10 6 0 10 -4 10 -10z m1635 -1090 c-3 -5 -12 -10 -18 -10 -7 0 -6 4 3
10 19 12 23 12 15 0z m151 -569 c1 -21 -3 -28 -13 -24 -8 3 -12 12 -9 20 3 8
6 19 6 24 0 5 3 9 8 9 4 0 7 -13 8 -29z m134 18 c0 -5 4 -8 10 -4 13 8 50 -17
50 -34 0 -11 -4 -11 -19 3 -10 9 -22 16 -27 15 -22 -4 -34 2 -34 16 0 8 5 15
10 15 6 0 10 -5 10 -11z m113 -61 c6 -4 9 -10 5 -13 -3 -4 -15 2 -25 12 -13
13 -16 22 -8 30 7 7 11 6 14 -6 2 -9 8 -19 14 -23z m-119 20 c-5 -8 -2 -9 9
-5 9 3 19 1 23 -5 5 -7 -4 -9 -25 -6 -18 3 -34 1 -37 -4 -9 -14 -24 -9 -18 6
3 8 15 17 27 19 12 2 23 5 25 6 2 0 0 -4 -4 -11z m-184 -19 c0 -5 4 -8 9 -5
11 7 41 -3 41 -14 0 -4 -15 -7 -32 -6 -33 1 -51 13 -42 28 7 12 24 10 24 -3z
m-33 -16 c3 -7 -3 -9 -16 -6 -12 3 -21 10 -21 15 0 13 32 6 37 -9z m138 7 c3
-5 2 -10 -4 -10 -5 0 -13 5 -16 10 -3 6 -2 10 4 10 5 0 13 -4 16 -10z m400
-18 c-3 -3 -11 0 -18 7 -9 10 -8 11 6 5 10 -3 15 -9 12 -12z m126 -10 c-5 -2
-8 -9 -5 -17 3 -7 1 -16 -5 -20 -6 -3 -11 0 -11 7 0 8 -5 19 -12 26 -9 9 -14
7 -24 -6 -12 -15 -13 -14 -14 9 0 26 1 26 41 15 22 -6 36 -12 30 -14z m-558
-2 c-3 -11 -9 -20 -15 -20 -5 0 -4 9 2 20 6 11 12 20 14 20 2 0 2 -9 -1 -20z
m157 10 c0 -5 -2 -10 -4 -10 -3 0 -8 5 -11 10 -3 6 -1 10 4 10 6 0 11 -4 11
-10z m245 0 c3 -5 1 -10 -4 -10 -6 0 -11 5 -11 10 0 6 2 10 4 10 3 0 8 -4 11
-10z m65 -50 c0 -5 -2 -10 -4 -10 -3 0 -8 5 -11 10 -3 6 -1 10 4 10 6 0 11 -4
11 -10z m-90 -25 c7 -9 8 -15 2 -15 -5 0 -12 7 -16 15 -3 8 -4 15 -2 15 2 0 9
-7 16 -15z m355 -694 c-3 -5 5 -11 17 -14 22 -3 22 -4 4 -12 -13 -6 -21 -5
-24 3 -2 7 -8 10 -13 6 -5 -3 -9 -1 -9 5 0 5 6 12 13 14 18 8 19 8 12 -2z m49
-68 c-5 -5 -12 -12 -16 -18 -4 -6 -8 -2 -8 8 0 9 7 17 17 17 9 0 12 -3 7 -7z
m29 -42 c-3 -12 7 -30 31 -53 26 -25 34 -40 29 -56 -3 -13 -1 -22 6 -22 6 0
11 7 11 15 0 8 5 15 11 15 6 0 8 -7 5 -17 -5 -11 2 -24 19 -39 l25 -21 -25 0
c-14 0 -25 4 -25 9 0 5 -9 4 -19 -2 -16 -8 -21 -6 -26 10 -3 11 -12 20 -19 20
-8 0 -13 11 -13 24 0 14 -8 32 -17 42 -10 9 -15 23 -12 31 3 8 6 26 6 39 0 13
4 24 9 24 5 0 7 -8 4 -19z m-43 -36 c0 -8 -2 -15 -4 -15 -2 0 -6 7 -10 15 -3
8 -1 15 4 15 6 0 10 -7 10 -15z m10 -50 c0 -7 7 -16 16 -19 9 -4 14 -9 11 -12
-9 -10 -54 30 -49 44 5 15 22 6 22 -13z m600 -655 c0 -5 -5 -10 -11 -10 -5 0
-7 5 -4 10 3 6 8 10 11 10 2 0 4 -4 4 -10z m160 -10 c0 -5 -5 -10 -11 -10 -5
0 -7 5 -4 10 3 6 8 10 11 10 2 0 4 -4 4 -10z m-136 -25 c-7 -18 -20 -19 -30
-3 -4 6 -3 8 4 4 6 -3 13 -2 17 4 9 15 15 12 9 -5z m78 -32 c3 -13 2 -23 -3
-23 -5 0 -9 9 -9 20 0 11 -7 23 -15 26 -8 4 -12 10 -9 15 7 12 29 -11 36 -38z
m-122 7 c0 -5 -2 -10 -4 -10 -3 0 -8 5 -11 10 -3 6 -1 10 4 10 6 0 11 -4 11
-10z m58 -19 c3 -10 0 -12 -12 -8 -9 4 -16 2 -16 -3 0 -6 -4 -10 -9 -10 -5 0
-7 9 -4 20 6 23 34 23 41 1z m37 9 c3 -5 1 -10 -4 -10 -6 0 -11 5 -11 10 0 6
2 10 4 10 3 0 8 -4 11 -10z m-31 -45 c-10 -8 -26 -14 -34 -14 -11 0 -10 3 4
14 11 8 27 15 35 15 11 0 10 -4 -5 -15z m56 -5 c0 -5 -5 -10 -11 -10 -5 0 -7
5 -4 10 3 6 8 10 11 10 2 0 4 -4 4 -10z m77 -12 c-3 -8 -6 -5 -6 6 -1 11 2 17
5 13 3 -3 4 -12 1 -19z m-107 2 c0 -5 -5 -10 -11 -10 -5 0 -7 5 -4 10 3 6 8
10 11 10 2 0 4 -4 4 -10z m-130 -20 c-8 -5 -17 -7 -19 -4 -3 3 1 9 9 14 8 5
17 7 19 4 3 -3 -1 -9 -9 -14z m120 -12 c0 -6 -7 -7 -16 -4 -8 3 -24 1 -35 -4
-13 -7 -19 -7 -19 0 0 5 7 10 15 10 8 0 15 4 15 9 0 5 9 7 20 4 11 -3 20 -10
20 -15z m80 -8 c4 0 11 -7 14 -16 5 -12 1 -14 -17 -9 -20 6 -20 6 -5 -6 9 -8
18 -23 21 -34 4 -16 5 -14 6 6 0 15 8 32 16 39 13 11 14 10 9 -4 -4 -11 -1
-16 12 -17 11 0 14 -3 6 -6 -19 -7 -44 -61 -32 -68 13 -8 3 -25 -14 -25 -8 0
-12 10 -11 25 5 39 -13 29 -21 -11 -5 -30 -8 -33 -16 -20 -6 11 -6 22 2 31 7
8 10 24 7 34 -3 11 0 22 7 25 6 2 -6 2 -26 0 -45 -5 -48 7 -12 35 25 20 26 21
5 21 -11 0 -21 5 -21 11 0 5 4 8 9 4 5 -3 12 -1 16 5 4 6 12 5 21 -5 9 -8 19
-15 24 -15z m37 17 c7 0 10 -4 7 -9 -3 -4 -15 -3 -27 3 -30 16 -37 24 -12 14
11 -4 25 -8 32 -8z m-277 -27 c0 -5 -2 -10 -4 -10 -3 0 -8 5 -11 10 -3 6 -1
10 4 10 6 0 11 -4 11 -10z m150 -21 c0 -5 -4 -9 -10 -9 -5 0 -10 7 -10 16 0 8
5 12 10 9 6 -3 10 -10 10 -16z m300 17 c0 -3 -4 -8 -10 -11 -5 -3 -10 -1 -10
4 0 6 5 11 10 11 6 0 10 -2 10 -4z m-390 -16 c0 -5 -5 -10 -12 -10 -6 0 -3 -7
8 -15 10 -8 15 -14 9 -15 -20 0 -35 17 -29 33 7 18 24 23 24 7z m43 -45 c-3
-8 -1 -15 5 -15 6 0 18 -3 28 -7 14 -5 16 -3 11 12 -6 15 -5 16 7 6 9 -8 16
-8 20 -2 4 6 13 8 22 4 9 -3 11 -9 6 -17 -14 -16 -20 -65 -10 -70 5 -2 3 -3
-4 -2 -8 2 -12 16 -11 34 1 18 -3 32 -8 32 -6 0 -7 -4 -4 -10 8 -13 -1 -13
-25 0 -16 9 -18 8 -13 -7 5 -12 2 -15 -10 -10 -9 3 -17 2 -17 -2 0 -5 -3 -16
-6 -25 -3 -9 -1 -16 4 -16 6 0 12 6 14 14 3 13 6 13 22 0 18 -12 18 -14 3 -14
-10 0 -23 -12 -29 -27 l-11 -28 -7 25 c-4 17 -13 25 -28 24 -27 -1 -29 12 -3
19 25 6 24 47 0 47 -9 0 -20 7 -23 16 -4 12 -1 14 14 9 21 -7 54 17 42 30 -4
5 -2 5 5 1 7 -4 10 -13 6 -21z m577 -35 c0 -5 -5 -10 -11 -10 -5 0 -7 5 -4 10
3 6 8 10 11 10 2 0 4 -4 4 -10z m23 -32 c-2 -5 -11 -8 -18 -8 -12 0 -12 5 -3
26 11 23 13 24 19 7 3 -10 5 -21 2 -25z m-680 25 c-7 -2 -19 -2 -25 0 -7 3 -2
5 12 5 14 0 19 -2 13 -5z m297 -3 c0 -5 -5 -10 -11 -10 -5 0 -7 5 -4 10 3 6 8
10 11 10 2 0 4 -4 4 -10z m450 6 c0 -3 -4 -8 -10 -11 -5 -3 -10 -1 -10 4 0 6
5 11 10 11 6 0 10 -2 10 -4z m-414 -20 c3 -8 12 -12 20 -9 10 4 12 0 8 -11 -7
-17 -24 -22 -24 -6 0 5 -8 7 -17 4 -15 -5 -16 -4 -3 5 13 10 13 12 0 21 -11 7
-11 10 -2 10 7 0 15 -6 18 -14z m-196 -6 c0 -5 -4 -10 -10 -10 -5 0 -10 5 -10
10 0 6 5 10 10 10 6 0 10 -4 10 -10z m620 6 c0 -2 -8 -10 -17 -17 -16 -13 -17
-12 -4 4 13 16 21 21 21 13z m-116 -22 c3 -8 2 -12 -4 -9 -6 3 -10 10 -10 16
0 14 7 11 14 -7z m-404 2 c0 -3 -4 -8 -10 -11 -5 -3 -10 -1 -10 4 0 6 5 11 10
11 6 0 10 -2 10 -4z m54 -25 c-5 -23 -2 -32 15 -40 17 -9 21 -9 21 2 0 8 7 20
15 27 9 8 15 8 15 2 0 -6 -5 -12 -11 -14 -8 -3 -6 -9 4 -20 15 -14 15 -17 1
-22 -9 -3 -12 -2 -9 5 9 13 -27 8 -37 -6 -4 -6 -8 -2 -8 8 0 9 -6 17 -14 17
-19 0 -28 39 -13 56 19 22 27 16 21 -15z m-234 -11 c0 -5 -5 -10 -11 -10 -5 0
-7 5 -4 10 3 6 8 10 11 10 2 0 4 -4 4 -10z m659 -13 c0 -9 -2 -8 -6 1 -2 6
-10 9 -15 6 -7 -4 -8 -2 -4 5 9 13 26 5 25 -12z m-685 -2 c18 -13 16 -14 -17
-13 -37 1 -48 12 -24 21 18 8 20 8 41 -8z m151 -5 c4 -6 -3 -9 -16 -7 -31 5
-79 -21 -79 -41 1 -16 2 -16 14 1 16 21 30 23 23 2 -4 -8 -2 -17 3 -20 6 -4
10 1 10 9 0 10 6 13 18 10 14 -5 14 -3 -2 10 -19 16 -19 16 10 14 42 -2 49 -9
23 -22 -29 -14 -34 -30 -14 -49 8 -9 15 -23 15 -31 0 -9 5 -16 10 -16 14 0 13
37 -1 42 -7 2 -9 13 -5 26 9 27 26 29 19 2 -3 -12 0 -20 6 -20 7 0 9 -4 6 -10
-3 -5 0 -10 7 -10 9 0 9 -3 -2 -10 -8 -5 -11 -10 -6 -10 5 0 2 -7 -5 -17 -13
-15 -12 -15 9 -4 13 7 26 19 29 27 3 8 15 14 27 13 21 0 21 0 -1 -9 -15 -6
-23 -18 -23 -34 0 -28 -15 -43 -23 -24 -4 9 -6 10 -6 1 -1 -6 8 -18 19 -26
l21 -14 -21 -6 c-25 -6 -38 -36 -20 -47 11 -7 11 -11 1 -24 -8 -9 -20 -16 -28
-16 -9 0 -13 -6 -10 -14 3 -8 1 -17 -6 -19 -9 -3 -9 -8 1 -18 14 -16 16 -39 2
-39 -5 0 -10 9 -10 20 0 11 -7 23 -16 27 -14 5 -14 7 -1 14 11 6 14 19 10 42
-6 41 -23 51 -41 26 -11 -16 -11 -23 -2 -34 9 -11 9 -15 1 -15 -6 0 -11 5 -11
10 0 6 -8 10 -17 10 -14 0 -13 3 5 23 12 13 22 29 22 35 0 7 5 12 10 12 6 0
10 7 10 15 0 8 -5 15 -11 15 -5 0 -8 -4 -5 -9 3 -5 -1 -12 -10 -15 -23 -9 -36
-7 -29 4 3 6 -4 14 -17 19 l-23 10 23 0 c12 1 22 -3 22 -9 0 -19 15 -10 27 15
10 22 9 25 -7 25 -9 0 -29 9 -43 20 -14 11 -30 20 -36 20 -6 0 -18 15 -27 33
-9 17 -24 41 -33 51 -15 18 -15 19 2 13 10 -4 17 -2 17 6 0 9 2 9 8 -1 5 -8
16 -10 27 -6 15 6 17 4 12 -15 -3 -15 -1 -21 6 -18 7 3 11 9 10 15 -3 11 73
51 99 52 9 0 20 -5 23 -10z m61 3 c-11 -11 -48 -14 -41 -3 3 5 16 10 27 10 12
0 18 -3 14 -7z m484 -33 c-24 -15 -37 -11 -16 5 11 8 22 12 25 9 3 -3 -1 -9
-9 -14z m35 11 c3 -5 1 -12 -5 -16 -5 -3 -10 1 -10 9 0 18 6 21 15 7z m-1680
-10 c3 -5 2 -12 -3 -15 -5 -3 -9 1 -9 9 0 17 3 19 12 6z m1155 5 c0 -3 -4 -8
-10 -11 -5 -3 -10 -1 -10 4 0 6 5 11 10 11 6 0 10 -2 10 -4z m40 -6 c0 -5 -4
-10 -9 -10 -6 0 -13 5 -16 10 -3 6 1 10 9 10 9 0 16 -4 16 -10z m447 -50 c1
-11 -2 -20 -8 -20 -10 0 -12 23 -2 33 9 9 9 10 10 -13z m-452 0 c7 -12 -2 -12
-30 0 -19 8 -19 9 2 9 12 1 25 -3 28 -9z m115 0 c0 -5 -5 -10 -11 -10 -5 0 -7
5 -4 10 3 6 8 10 11 10 2 0 4 -4 4 -10z m50 -60 c0 -5 -5 -10 -11 -10 -5 0 -7
5 -4 10 3 6 8 10 11 10 2 0 4 -4 4 -10z m-150 -4 c0 -3 -4 -8 -10 -11 -5 -3
-10 -1 -10 4 0 6 5 11 10 11 6 0 10 -2 10 -4z m-180 -32 c0 -2 -9 -4 -21 -4
-11 0 -18 4 -14 10 5 8 35 3 35 -6z m-798 -78 c7 -13 7 -17 -2 -11 -8 5 -7 0
2 -14 15 -25 28 -27 28 -6 0 8 5 15 11 15 7 0 9 -10 5 -27 -5 -23 -4 -25 4
-10 6 9 8 26 5 37 -8 24 1 26 22 5 12 -12 13 -19 3 -30 -10 -12 -9 -15 4 -15
10 0 15 4 12 8 -3 5 8 9 24 9 18 0 27 -4 22 -11 -10 -17 -11 -36 -1 -36 5 0 9
-7 9 -15 0 -8 -4 -15 -10 -15 -5 0 -7 -6 -4 -14 3 -7 -2 -16 -12 -20 -16 -6
-15 -8 1 -26 22 -25 14 -37 -9 -14 -10 10 -14 23 -10 33 3 9 8 25 10 36 3 15
2 14 -6 -4 -6 -14 -16 -21 -24 -18 -11 4 -13 0 -10 -16 2 -12 8 -23 14 -25 5
-2 10 -8 10 -13 0 -6 -7 -6 -19 0 -10 6 -21 8 -23 5 -3 -3 -4 9 -2 26 4 31
-12 40 -33 19 -13 -13 -33 -4 -33 17 0 8 -6 14 -12 15 -47 3 -70 16 -49 28 10
7 9 10 -3 14 -11 5 -16 1 -16 -13 0 -10 5 -22 10 -25 16 -10 12 -25 -5 -19 -8
4 -15 17 -15 30 0 13 -4 24 -8 24 -5 0 -14 12 -21 27 -10 22 -14 24 -22 12
-10 -16 -12 -8 -3 15 5 13 9 14 20 5 8 -6 14 -18 14 -25 0 -8 5 -14 11 -14 6
0 9 6 6 14 -4 10 0 12 15 8 16 -4 19 -2 14 9 -4 8 2 3 14 -11 13 -14 21 -18
19 -10 -1 8 1 27 5 43 6 18 4 33 -5 45 -10 12 -7 12 10 -3 12 -11 27 -28 33
-39z m996 17 c15 -9 28 -18 30 -19 7 -3 -11 -34 -20 -34 -7 0 -6 5 1 13 8 10
7 14 -4 14 -8 0 -15 -9 -15 -19 0 -20 -1 -21 -24 -12 -21 8 -20 21 2 28 10 3
7 4 -8 3 -14 -1 -26 2 -27 6 -6 17 -2 26 15 30 9 3 18 5 20 6 1 0 15 -7 30
-16z m-1168 -3 c0 -5 -4 -10 -10 -10 -5 0 -10 5 -10 10 0 6 5 10 10 10 6 0 10
-4 10 -10z m970 -10 c0 -5 -4 -10 -9 -10 -5 0 -12 -12 -17 -27 -5 -20 -8 -23
-11 -11 -5 20 13 58 27 58 6 0 10 -4 10 -10z m50 -40 c0 -5 -4 -10 -10 -10 -5
0 -10 5 -10 10 0 6 5 10 10 10 6 0 10 -4 10 -10z m-1020 -35 c0 -5 -5 -3 -11
5 -8 11 -12 12 -16 3 -7 -19 -43 -16 -43 3 0 11 6 15 20 11 11 -3 23 -1 26 5
7 11 24 -9 24 -27z m-230 4 c8 -15 8 -24 0 -34 -6 -8 -8 -25 -4 -41 7 -27 6
-28 -10 -11 -9 9 -14 21 -11 27 3 5 0 10 -7 11 -7 0 -3 4 10 9 26 11 30 32 5
24 -14 -5 -15 -4 -4 4 7 5 10 15 7 21 -4 6 -5 11 -2 11 3 0 10 -9 16 -21z
m1370 1 c0 -5 -7 -7 -15 -4 -8 4 -15 8 -15 10 0 2 7 4 15 4 8 0 15 -4 15 -10z
m-1270 -20 c0 -11 -2 -20 -4 -20 -2 0 -6 9 -9 20 -3 11 -1 20 4 20 5 0 9 -9 9
-20z m177 5 c1 -5 -9 -15 -23 -22 -21 -10 -24 -10 -14 2 7 8 9 19 5 26 -5 7
-1 10 10 7 10 -1 20 -7 22 -13z m1059 4 c7 -13 -22 -46 -32 -36 -4 4 -1 14 7
24 9 11 10 14 2 9 -7 -4 -13 -2 -13 3 0 14 27 14 36 0z m119 -7 c-3 -3 -11 0
-18 7 -9 10 -8 11 6 5 10 -3 15 -9 12 -12z m-879 -19 c-10 -10 -19 5 -10 18 6
11 8 11 12 0 2 -7 1 -15 -2 -18z m-380 1 c-3 -9 -6 -18 -6 -21 0 -3 -7 0 -15
7 -13 11 -13 15 -3 21 21 13 31 10 24 -7z m1231 10 c-3 -3 -12 -4 -19 -1 -8 3
-5 6 6 6 11 1 17 -2 13 -5z m563 2 c0 -3 -4 -8 -10 -11 -5 -3 -10 -1 -10 4 0
6 5 11 10 11 6 0 10 -2 10 -4z m-1770 -31 c11 -13 10 -14 -4 -9 -9 3 -16 10
-16 15 0 13 6 11 20 -6z m373 -2 c-21 -8 -15 -33 8 -33 11 0 18 4 14 9 -3 5
-1 12 4 15 5 3 11 -3 14 -13 3 -11 -1 -22 -9 -25 -8 -3 -11 -12 -7 -23 5 -15
3 -15 -10 2 -8 11 -19 16 -23 12 -5 -4 -2 -12 6 -17 10 -6 11 -10 3 -10 -20 0
-45 47 -38 69 3 11 14 21 23 24 20 4 32 -4 15 -10z m658 0 c13 -16 12 -17 -3
-4 -17 13 -22 21 -14 21 2 0 10 -8 17 -17z m127 -3 c-7 -11 -17 -20 -22 -20
-5 0 -1 9 9 20 10 11 20 20 22 20 2 0 -2 -9 -9 -20z m-45 -13 c6 -15 -31 -42
-41 -31 -4 4 -1 9 6 11 6 3 12 11 12 19 0 18 16 18 23 1z m-1423 -19 c0 -6 -6
-5 -15 2 -8 7 -15 14 -15 16 0 2 7 1 15 -2 8 -4 15 -11 15 -16z m1330 2 c0 -5
-2 -10 -4 -10 -3 0 -8 5 -11 10 -3 6 -1 10 4 10 6 0 11 -4 11 -10z m-800 -10
c0 -5 -5 -10 -11 -10 -5 0 -7 5 -4 10 3 6 8 10 11 10 2 0 4 -4 4 -10z m245
-40 c3 -5 2 -10 -4 -10 -5 0 -13 5 -16 10 -3 6 -2 10 4 10 5 0 13 -4 16 -10z
m705 -39 c0 -6 -4 -13 -10 -16 -5 -3 -10 1 -10 9 0 9 5 16 10 16 6 0 10 -4 10
-9z m651 -159 c-11 -23 -25 -43 -30 -46 -5 -3 3 16 18 43 31 59 42 61 12 3z
m-1808 -159 c-79 -2 -207 -2 -285 0 -79 1 -15 3 142 3 157 0 221 -2 143 -3z
m1145 0 c-169 -2 -448 -2 -620 0 -172 1 -34 2 307 2 341 0 482 -1 313 -2z"/>
<path d="M3010 5750 c-40 -40 -11 -110 45 -110 32 0 65 33 65 65 0 32 -33 65
-65 65 -14 0 -34 -9 -45 -20z"/>
<path d="M4423 5251 c-10 -11 -28 -49 -41 -85 -13 -35 -30 -70 -38 -77 -8 -6
-14 -17 -14 -23 0 -6 -16 -28 -35 -49 -19 -21 -35 -44 -35 -51 0 -17 -63 -66
-87 -67 -10 0 -13 -3 -6 -6 8 -3 -1 -17 -24 -38 -21 -19 -34 -37 -31 -40 3 -4
17 4 30 17 13 12 27 23 31 23 4 0 12 6 16 14 13 21 25 -24 12 -47 -6 -11 -8
-22 -6 -26 3 -3 2 -4 -1 -1 -4 2 -35 -16 -71 -40 -35 -24 -73 -47 -84 -50 -11
-4 -18 -9 -16 -12 3 -2 35 10 72 26 37 17 72 31 76 31 15 0 -2 -29 -21 -35
-10 -3 -20 -18 -23 -33 -5 -25 1 -34 28 -46 18 -8 -19 -26 -52 -26 -20 0 -41
8 -54 21 -15 15 -29 20 -49 16 -39 -8 -45 3 -13 25 l28 19 -30 -3 c-25 -3 -30
0 -29 19 0 20 -5 17 -40 -21 -23 -24 -62 -58 -88 -75 -27 -18 -55 -45 -63 -61
-19 -37 -19 -46 0 -30 12 10 19 10 27 2 8 -8 5 -21 -11 -47 -31 -52 -28 -75 6
-41 31 32 41 28 18 -8 -9 -14 -15 -27 -13 -30 2 -2 -10 -14 -25 -26 -16 -12
-26 -28 -23 -36 3 -7 -1 -19 -8 -27 -7 -7 -20 -26 -29 -42 -9 -17 -16 -23 -17
-15 0 8 -20 -8 -44 -35 -24 -26 -42 -54 -39 -61 2 -7 -9 -23 -27 -35 -19 -15
-28 -29 -25 -38 3 -9 3 -12 -1 -9 -4 4 -16 2 -27 -4 -16 -8 -19 -7 -15 3 4 9
-2 14 -17 14 -13 0 -21 -3 -19 -7 2 -3 -9 -12 -26 -20 -16 -7 -30 -16 -30 -20
0 -5 -6 -8 -12 -8 -7 0 -22 -14 -33 -30 -11 -16 -25 -30 -32 -30 -6 0 -19 -7
-28 -16 -8 -9 -22 -14 -29 -11 -8 3 -21 -8 -32 -28 -12 -24 -21 -30 -26 -22
-4 7 -5 -3 -2 -20 4 -22 3 -33 -5 -33 -6 0 -11 -4 -11 -10 0 -17 20 -11 44 13
23 23 24 23 35 4 7 -10 10 -22 7 -25 -3 -3 -6 0 -6 6 0 7 -4 12 -10 12 -5 0
-7 -7 -4 -15 4 -9 0 -15 -10 -15 -9 0 -16 -6 -16 -12 0 -9 -3 -8 -10 2 -12 19
-19 11 -22 -28 -2 -35 -7 -38 -27 -19 -11 10 -12 7 -6 -18 9 -36 9 -52 0 -83
-10 -31 15 -21 38 16 16 24 17 24 12 4 -6 -21 -4 -22 22 -16 15 4 31 11 34 16
3 6 10 10 15 10 23 1 46 28 41 48 -9 35 17 17 27 -18 5 -20 15 -32 25 -32 27
0 77 60 111 135 18 39 37 79 42 90 5 11 30 35 56 54 26 19 61 50 78 69 19 20
34 30 38 23 4 -5 14 -7 24 -4 16 6 16 5 0 -14 -20 -22 -25 -44 -6 -25 15 15
49 -47 41 -77 -6 -23 -2 -23 110 -6 33 5 75 -9 105 -38 12 -11 30 -22 40 -23
9 -1 40 -5 67 -9 56 -8 135 9 135 28 0 7 -5 18 -12 25 -9 9 -9 12 0 12 7 0 17
12 22 26 6 14 19 28 30 31 21 6 28 23 10 23 -7 0 -7 7 0 20 6 11 8 24 5 29 -3
5 1 11 7 14 10 3 10 7 -1 21 -8 9 -11 20 -7 23 4 4 12 1 17 -7 8 -11 9 -9 4 9
-5 15 -2 27 6 32 11 7 11 9 1 9 -9 0 -11 7 -7 19 6 19 -17 51 -36 51 -5 0 -9
7 -9 16 0 11 -5 14 -16 10 -9 -4 -49 -11 -87 -16 -52 -8 -73 -7 -81 1 -8 9 -7
10 6 6 9 -3 24 0 34 8 10 7 24 11 31 8 7 -3 13 0 13 7 0 10 3 10 15 0 12 -10
16 -9 21 3 4 12 39 25 89 32 6 1 17 5 25 8 8 3 23 7 33 9 10 2 17 8 15 13 -2
5 -5 9 -8 9 -3 -1 -30 -4 -60 -8 l-55 -6 68 28 c37 15 76 35 87 45 11 9 26 14
33 11 8 -3 20 2 27 11 12 14 10 16 -13 10 -32 -8 -38 10 -7 20 11 3 20 10 20
15 0 5 9 11 19 15 22 7 43 57 35 80 -4 8 -1 15 4 15 28 0 43 148 17 170 -8 7
-15 21 -15 32 0 10 -11 29 -25 42 -13 13 -21 26 -17 30 4 4 2 7 -3 5 -6 -1
-19 2 -29 6 -17 8 -107 -5 -154 -22 -9 -3 -6 3 8 14 14 11 55 27 93 37 l67 18
0 50 c0 32 7 59 18 76 37 54 62 117 55 142 -8 30 -63 100 -80 100 -7 0 -20 -9
-30 -19z m-77 -696 c1 -8 -4 -11 -11 -8 -8 2 -11 11 -8 19 6 16 16 11 19 -11z
m-119 -251 c-3 -3 -12 -4 -19 -1 -8 3 -5 6 6 6 11 1 17 -2 13 -5z m-742 -284
c-10 -11 -23 -20 -28 -20 -6 0 -2 9 8 20 10 11 23 20 28 20 6 0 2 -9 -8 -20z
m305 10 c0 -5 -4 -10 -10 -10 -5 0 -10 5 -10 10 0 6 5 10 10 10 6 0 10 -4 10
-10z m30 -34 c0 -11 -19 -15 -25 -6 -3 5 1 10 9 10 9 0 16 -2 16 -4z m-435
-55 c-3 -6 -16 -16 -28 -23 -20 -10 -20 -9 3 15 24 25 39 29 25 8z m-45 -50
c0 -6 -4 -13 -10 -16 -5 -3 -10 1 -10 9 0 9 5 16 10 16 6 0 10 -4 10 -9z m9
-121 c0 -21 -25 29 -32 65 -5 26 -4 25 13 -10 11 -22 19 -47 19 -55z"/>
<path d="M3965 4710 c-3 -5 -1 -10 4 -10 6 0 11 5 11 10 0 6 -2 10 -4 10 -3 0
-8 -4 -11 -10z"/>
<path d="M3730 4491 c0 -5 -16 -26 -35 -47 -19 -22 -34 -46 -34 -54 0 -9 3 -7
9 5 4 12 15 27 24 34 26 22 59 71 47 71 -6 0 -11 -4 -11 -9z"/>
<path d="M3617 4353 c-4 -3 -7 -11 -7 -17 0 -6 5 -5 12 2 6 6 9 14 7 17 -3 3
-9 2 -12 -2z"/>
<path d="M3529 4243 c-13 -16 -12 -17 4 -4 16 13 21 21 13 21 -2 0 -10 -8 -17
-17z"/>
<path d="M3490 4209 c0 -5 5 -7 10 -4 6 3 10 8 10 11 0 2 -4 4 -10 4 -5 0 -10
-5 -10 -11z"/>
<path d="M3505 4190 c-3 -6 1 -7 9 -4 18 7 21 14 7 14 -6 0 -13 -4 -16 -10z"/>
<path d="M3456 4171 c-25 -27 -16 -44 11 -23 14 11 20 22 15 30 -7 9 -13 8
-26 -7z"/>
<path d="M3373 4050 c-18 -11 -33 -25 -33 -32 0 -6 9 -2 20 10 12 12 27 22 35
22 8 0 15 5 15 10 0 13 0 13 -37 -10z"/>
<path d="M4455 4000 c-3 -5 -3 -21 1 -35 9 -35 -3 -31 -20 8 -11 25 -15 28
-15 11 -1 -11 7 -28 17 -37 16 -14 20 -14 49 -1 17 9 34 23 38 31 8 24 1 25
-22 4 -19 -18 -20 -18 -31 0 -7 11 -8 19 -3 19 5 0 12 -6 14 -12 3 -8 6 -6 6
5 1 18 -24 24 -34 7z"/>
<path d="M3761 3934 c0 -11 3 -14 6 -6 3 7 2 16 -1 19 -3 4 -6 -2 -5 -13z"/>
<path d="M3550 3880 c0 -5 5 -10 10 -10 6 0 10 5 10 10 0 6 -4 10 -10 10 -5 0
-10 -4 -10 -10z"/>
<path d="M3707 3857 c-10 -10 -23 -15 -29 -11 -7 4 -8 3 -4 -4 4 -7 1 -12 -8
-12 -9 0 -16 -5 -16 -10 0 -6 12 -9 28 -8 29 3 39 -21 12 -30 -13 -5 -13 -3
-1 11 9 12 10 17 2 17 -6 0 -14 -13 -17 -30 -4 -16 -10 -27 -15 -25 -4 3 -13
-4 -19 -15 -6 -11 -7 -20 -3 -20 15 1 43 27 43 40 0 7 7 10 16 6 9 -3 17 -6
20 -6 2 0 1 -8 -3 -17 -6 -16 -5 -17 13 -3 45 36 180 94 195 84 4 -2 10 0 14
6 3 5 -1 10 -9 10 -9 0 -16 6 -16 13 0 8 -3 7 -10 -3 -8 -13 -11 -12 -24 5
-20 28 -142 30 -169 2z m35 -14 c-6 -2 -10 -9 -6 -14 3 -5 0 -9 -5 -9 -12 0
-14 13 -4 23 3 4 11 7 17 6 6 0 5 -3 -2 -6z"/>
<path d="M3630 3779 c0 -5 5 -7 10 -4 6 3 10 8 10 11 0 2 -4 4 -10 4 -5 0 -10
-5 -10 -11z"/>
<path d="M3140 3561 c0 -6 5 -13 10 -16 6 -3 10 1 10 9 0 9 -4 16 -10 16 -5 0
-10 -4 -10 -9z"/>
<path d="M5070 3500 c-6 -12 -7 -20 -1 -20 5 0 11 6 14 13 3 8 10 6 21 -8 19
-24 21 -7 2 18 -17 22 -23 22 -36 -3z"/>
<path d="M5135 3398 c-17 -18 -18 -20 -2 -15 17 6 22 -2 17 -32 -1 -9 4 -12
14 -8 14 5 15 3 6 -13 -14 -27 -12 -34 5 -20 13 11 15 10 9 -6 -5 -18 -4 -18
11 1 l17 20 -6 -20 c-3 -11 -1 -27 5 -35 9 -13 10 -13 6 0 -2 8 2 21 10 28 15
15 18 36 4 27 -9 -5 -21 20 -27 53 -2 13 -33 42 -44 41 -3 0 -14 -10 -25 -21z"/>
<path d="M4217 3283 c-4 -3 -7 -11 -7 -17 0 -6 5 -4 10 4 8 13 10 12 10 -2 0
-22 13 -23 29 -4 8 10 9 16 1 21 -5 3 -10 1 -10 -6 0 -8 -3 -9 -13 0 -8 6 -17
8 -20 4z"/>
<path d="M5215 3240 c3 -5 8 -10 11 -10 2 0 4 5 4 10 0 6 -5 10 -11 10 -5 0
-7 -4 -4 -10z"/>
<path d="M3963 3043 c9 -2 17 -11 17 -19 0 -8 5 -14 10 -14 6 0 10 4 10 8 0
14 -23 32 -39 31 -12 -1 -12 -2 2 -6z"/>
<path d="M3514 3024 c3 -9 6 -18 6 -20 0 -2 12 -4 26 -4 14 0 23 -4 19 -9 -3
-6 4 -15 15 -21 12 -6 20 -7 20 -1 0 5 -6 12 -12 14 -10 4 -9 6 1 6 18 1 -6
31 -25 31 -8 0 -14 4 -14 8 0 4 -9 8 -21 9 -15 1 -19 -2 -15 -13z"/>
<path d="M3805 3014 c16 -25 16 -26 -3 -20 -17 6 -19 3 -15 -15 5 -18 3 -21
-10 -16 -12 5 -17 1 -17 -13 0 -21 15 -27 25 -10 5 8 11 7 21 -1 19 -16 30 -4
14 16 -10 12 -10 18 0 30 7 8 17 12 24 9 6 -3 3 1 -8 10 -10 8 -15 19 -11 25
3 7 -3 11 -16 11 -21 0 -21 -1 -4 -26z"/>
<path d="M3850 3021 c0 -5 9 -13 20 -16 11 -3 20 -11 20 -16 0 -5 7 -9 16 -9
8 0 12 5 9 10 -3 6 0 10 7 11 15 1 -41 28 -59 29 -7 0 -13 -4 -13 -9z"/>
<path d="M3623 2993 c-3 -8 -3 -17 1 -20 3 -4 6 -1 6 5 0 16 72 -13 83 -33 4
-8 12 -15 17 -15 13 0 8 43 -8 59 -18 18 -92 22 -99 4z"/>
<path d="M3290 2989 c0 -5 5 -7 10 -4 6 3 10 -1 10 -9 0 -9 5 -16 10 -16 14 0
13 13 -2 28 -15 15 -28 15 -28 1z"/>
<path d="M3950 2990 c0 -5 5 -10 10 -10 6 0 10 5 10 10 0 6 -4 10 -10 10 -5 0
-10 -4 -10 -10z"/>
<path d="M3993 2977 c0 -31 12 -44 20 -23 3 8 0 22 -7 32 -12 16 -13 15 -13
-9z"/>
<path d="M3832 2973 c-17 -7 4 -33 27 -33 13 0 14 -2 1 -9 -8 -6 -18 -7 -22
-5 -5 3 -6 -6 -2 -20 8 -34 -10 -34 -32 0 -10 14 -20 22 -23 17 -3 -4 -13 -8
-21 -8 -9 0 -14 -7 -12 -19 4 -22 55 -76 71 -76 6 0 11 -6 11 -14 0 -7 7 -19
15 -26 16 -13 21 -35 6 -26 -5 3 -11 -3 -14 -13 -3 -14 -1 -18 9 -14 8 3 14 1
14 -5 0 -5 9 -12 20 -15 25 -6 26 8 3 22 -10 5 -15 13 -11 17 4 4 17 -4 28
-18 11 -14 35 -35 54 -46 28 -17 35 -18 40 -6 7 17 -31 54 -49 47 -14 -5 -39
30 -28 40 7 8 -22 37 -37 37 -6 0 -8 -5 -4 -12 4 -7 3 -8 -5 -4 -6 4 -9 12 -6
17 4 5 2 9 -2 9 -5 0 -14 9 -20 19 -15 24 4 84 24 77 7 -3 13 2 13 10 0 8 4
13 10 9 5 -3 7 -12 4 -19 -3 -8 -1 -17 5 -21 6 -3 11 0 11 7 1 9 5 7 14 -4 7
-10 25 -18 39 -18 14 0 28 -7 31 -16 12 -31 16 -8 5 25 -9 24 -14 29 -24 21
-10 -8 -17 -6 -28 10 -11 16 -16 18 -20 8 -4 -9 -6 -8 -6 3 -1 9 -9 19 -18 22
-10 4 -27 13 -38 20 -11 8 -26 13 -33 10z m-37 -93 c3 -6 -1 -7 -9 -4 -18 7
-21 14 -7 14 6 0 13 -4 16 -10z"/>
<path d="M4070 2964 c1 -13 29 -48 34 -43 2 2 -4 15 -15 28 -10 13 -19 19 -19
15z"/>
<path d="M4146 2943 c-11 -11 -6 -23 9 -23 8 0 15 4 15 9 0 13 -16 22 -24 14z"/>
<path d="M3680 2927 c0 -9 -7 -17 -17 -17 -24 0 -7 -13 22 -16 29 -3 30 3 10
30 -13 17 -15 18 -15 3z"/>
<path d="M4030 2910 c-8 -5 -12 -11 -9 -14 2 -3 11 -1 19 4 8 5 12 11 9 14 -2
3 -11 1 -19 -4z"/>
<path d="M3431 2894 c0 -11 3 -14 6 -6 3 7 2 16 -1 19 -3 4 -6 -2 -5 -13z"/>
<path d="M4120 2890 c0 -5 5 -10 11 -10 5 0 7 5 4 10 -3 6 -8 10 -11 10 -2 0
-4 -4 -4 -10z"/>
<path d="M4144 2873 c-5 -10 -8 -26 -6 -35 6 -30 17 -20 18 17 0 19 0 35 0 35
-1 0 -6 -8 -12 -17z"/>
<path d="M3875 2870 c-3 -5 -1 -10 4 -10 6 0 11 5 11 10 0 6 -2 10 -4 10 -3 0
-8 -4 -11 -10z"/>
<path d="M4030 2862 c0 -5 7 -15 15 -22 8 -7 15 -8 15 -2 0 5 -7 15 -15 22 -8
7 -15 8 -15 2z"/>
<path d="M4230 2860 c0 -5 7 -10 16 -10 8 0 12 5 9 10 -3 6 -10 10 -16 10 -5
0 -9 -4 -9 -10z"/>
<path d="M3891 2846 c-20 -11 -21 -14 -7 -25 11 -9 16 -10 16 -2 0 6 9 11 20
11 11 0 20 4 20 9 0 16 -25 19 -49 7z"/>
<path d="M3700 2837 c0 -8 11 -19 25 -25 30 -14 31 -12 6 16 -21 25 -31 28
-31 9z"/>
<path d="M3756 2841 c-3 -5 1 -11 9 -14 9 -4 12 -1 8 9 -6 16 -10 17 -17 5z"/>
<path d="M3950 2821 c0 -6 4 -12 9 -15 13 -8 42 4 35 15 -7 12 -44 12 -44 0z"/>
<path d="M3680 2800 c0 -12 -7 -20 -17 -20 -13 0 -12 -4 7 -20 18 -16 21 -26
16 -52 -5 -29 -4 -31 8 -15 19 24 29 21 22 -7 -6 -26 9 -45 24 -30 13 14 0 64
-17 64 -12 0 -12 2 -1 13 7 8 20 16 28 20 9 3 4 6 -12 6 -20 1 -29 8 -37 31
-12 35 -21 39 -21 10z"/>
<path d="M4006 2804 c-4 -10 -1 -14 6 -12 15 5 23 28 10 28 -5 0 -13 -7 -16
-16z"/>
<path d="M4222 2798 c9 -7 18 -20 21 -28 4 -10 6 -8 6 6 1 12 -6 25 -15 28
-25 9 -29 7 -12 -6z"/>
<path d="M4060 2789 c0 -5 5 -7 10 -4 6 3 10 8 10 11 0 2 -4 4 -10 4 -5 0 -10
-5 -10 -11z"/>
<path d="M3770 2781 c0 -5 5 -13 10 -16 6 -3 10 -2 10 4 0 5 -4 13 -10 16 -5
3 -10 2 -10 -4z"/>
<path d="M3992 2765 c6 -14 15 -25 20 -25 5 0 1 11 -8 25 -9 14 -18 25 -20 25
-2 0 2 -11 8 -25z"/>
<path d="M3940 2761 c0 -5 7 -12 16 -15 22 -9 24 -8 18 9 -7 16 -34 21 -34 6z"/>
<path d="M4040 2760 c0 -5 5 -10 11 -10 5 0 7 5 4 10 -3 6 -8 10 -11 10 -2 0
-4 -4 -4 -10z"/>
<path d="M3641 2744 c10 -13 10 -17 0 -24 -17 -10 -5 -30 17 -30 14 0 14 2 3
9 -16 10 -5 34 12 25 7 -4 2 3 -10 15 -26 24 -42 28 -22 5z"/>
<path d="M4087 2740 c3 -10 12 -21 21 -24 10 -3 23 -9 30 -12 27 -13 10 15
-22 34 -31 19 -33 19 -29 2z"/>
<path d="M4027 2724 c-7 -8 14 -54 25 -54 4 0 8 6 8 13 -1 17 -26 48 -33 41z"/>
<path d="M3757 2693 c3 -7 9 -13 15 -13 5 0 6 -10 3 -21 -5 -16 -4 -19 5 -14
9 6 11 4 6 -4 -5 -7 -14 -10 -22 -7 -12 4 -12 2 -4 -14 9 -18 24 -18 52 -3 5
2 1 18 -7 34 -9 16 -13 33 -11 38 3 5 -5 11 -18 13 -17 4 -23 1 -19 -9z"/>
<path d="M3820 2703 c0 -5 8 -21 19 -36 16 -24 19 -26 31 -12 10 12 10 15 -3
15 -9 0 -19 9 -22 20 -6 19 -25 29 -25 13z"/>
<path d="M4095 2690 c-3 -5 -1 -10 4 -10 6 0 11 5 11 10 0 6 -2 10 -4 10 -3 0
-8 -4 -11 -10z"/>
<path d="M4147 2671 c-3 -11 3 -24 15 -32 11 -8 24 -24 29 -37 5 -13 13 -21
18 -17 6 3 1 20 -10 40 -12 19 -18 35 -14 35 4 0 2 7 -5 15 -17 20 -27 19 -33
-4z"/>
<path d="M3897 2666 c-3 -8 1 -17 9 -20 18 -7 18 -26 0 -26 -7 0 -19 -7 -26
-16 -11 -12 -11 -18 2 -30 17 -17 52 -8 44 11 -2 7 -1 16 4 21 4 5 0 24 -10
42 -12 23 -19 28 -23 18z"/>
<path d="M3660 2656 c0 -8 12 -24 28 -35 21 -16 23 -20 9 -21 -14 0 -16 -4 -8
-19 6 -10 8 -21 4 -24 -3 -4 3 -10 13 -13 10 -4 27 -14 37 -23 16 -13 19 -13
28 -1 8 13 11 13 19 0 24 -38 28 -42 39 -36 6 4 11 12 11 18 0 6 -3 9 -6 5 -3
-3 -20 7 -38 24 -24 22 -28 31 -18 38 11 6 9 9 -7 14 -12 3 -22 -1 -25 -10 -3
-8 -2 -12 3 -9 5 3 12 -1 15 -10 11 -28 6 -28 -24 1 -17 16 -28 35 -25 43 5
14 -33 72 -47 72 -4 0 -8 -6 -8 -14z"/>
<path d="M3950 2645 c0 -3 7 -14 16 -23 15 -14 16 -14 13 3 -4 17 -29 35 -29
20z"/>
<path d="M4603 2636 c5 -15 24 -18 24 -3 0 8 -6 14 -14 14 -7 0 -12 -5 -10
-11z"/>
<path d="M3650 2621 c0 -6 4 -13 10 -16 6 -3 7 1 4 9 -7 18 -14 21 -14 7z"/>
<path d="M3850 2620 c-8 -5 -12 -11 -10 -14 3 -2 14 2 24 10 22 15 10 19 -14
4z"/>
<path d="M4047 2623 c-10 -9 -9 -23 2 -23 5 0 11 7 15 15 5 15 -5 20 -17 8z"/>
<path d="M3630 2591 c0 -11 5 -23 10 -26 6 -3 10 3 10 14 0 11 -4 23 -10 26
-5 3 -10 -3 -10 -14z"/>
<path d="M4068 2594 c-6 -6 2 -53 11 -58 3 -2 7 9 8 25 2 27 -8 45 -19 33z"/>
<path d="M3825 2580 c3 -5 8 -10 11 -10 2 0 4 5 4 10 0 6 -5 10 -11 10 -5 0
-7 -4 -4 -10z"/>
<path d="M3660 2570 c0 -5 5 -10 11 -10 5 0 7 5 4 10 -3 6 -8 10 -11 10 -2 0
-4 -4 -4 -10z"/>
<path d="M3940 2574 c0 -5 7 -18 16 -29 12 -16 16 -17 23 -6 7 11 10 9 16 -8
7 -23 20 -27 30 -10 10 15 -24 49 -41 42 -8 -3 -21 0 -29 7 -8 7 -15 9 -15 4z"/>
<path d="M4230 2570 c0 -5 5 -10 10 -10 6 0 10 5 10 10 0 6 -4 10 -10 10 -5 0
-10 -4 -10 -10z"/>
<path d="M3800 2551 c0 -5 5 -13 10 -16 6 -3 10 -2 10 4 0 5 -4 13 -10 16 -5
3 -10 2 -10 -4z"/>
<path d="M3890 2541 c0 -5 5 -13 10 -16 6 -3 10 -2 10 4 0 5 -4 13 -10 16 -5
3 -10 2 -10 -4z"/>
<path d="M4720 2519 c0 -5 5 -7 10 -4 6 3 10 8 10 11 0 2 -4 4 -10 4 -5 0 -10
-5 -10 -11z"/>
<path d="M3718 2495 c2 -14 8 -28 13 -31 15 -9 10 33 -5 45 -11 9 -12 6 -8
-14z"/>
<path d="M3870 2514 c0 -10 42 -44 53 -44 5 0 -2 11 -17 25 -28 26 -36 30 -36
19z"/>
<path d="M3920 2511 c0 -4 14 -20 32 -37 18 -16 26 -21 19 -12 -7 9 -10 21 -8
25 3 5 -6 13 -19 20 -13 6 -24 8 -24 4z"/>
<path d="M4786 2504 c-10 -26 -6 -30 9 -10 9 12 15 15 15 7 0 -7 11 -22 25
-33 14 -11 25 -27 25 -36 0 -14 2 -14 9 -3 7 11 10 10 14 -5 4 -13 5 -11 4 6
-1 14 -5 24 -9 23 -10 -4 -48 34 -48 46 0 5 -7 12 -16 15 -21 8 -21 8 -28 -10z"/>
<path d="M3846 2473 c-4 -10 -2 -13 8 -10 7 3 23 -3 35 -14 14 -13 21 -15 21
-7 0 7 -13 20 -29 30 -26 14 -30 14 -35 1z"/>
<path d="M3990 2470 c6 -11 15 -20 20 -20 17 0 11 15 -11 28 -19 12 -19 11 -9
-8z"/>
<path d="M3926 2417 c3 -10 9 -15 12 -12 3 3 0 11 -7 18 -10 9 -11 8 -5 -6z"/>
<path d="M3840 2416 c0 -2 7 -6 15 -10 8 -3 15 -1 15 4 0 6 -7 10 -15 10 -8 0
-15 -2 -15 -4z"/>
<path d="M4060 2410 c0 -5 5 -10 11 -10 5 0 7 5 4 10 -3 6 -8 10 -11 10 -2 0
-4 -4 -4 -10z"/>
<path d="M3750 2389 c6 -10 14 -19 19 -19 4 0 7 -10 7 -22 -1 -13 4 -22 11
-21 7 2 10 -3 7 -11 -4 -10 0 -13 13 -12 10 2 23 -1 30 -6 16 -13 28 10 13 27
-6 8 -17 12 -25 9 -8 -4 -15 5 -19 23 -5 20 -16 32 -36 40 -28 10 -29 10 -20
-8z"/>
<path d="M4842 2396 c1 -10 8 -17 13 -17 15 1 12 24 -3 29 -9 3 -13 -2 -10
-12z"/>
<path d="M4095 2380 c-3 -5 -1 -10 4 -10 6 0 11 5 11 10 0 6 -2 10 -4 10 -3 0
-8 -4 -11 -10z"/>
<path d="M4002 2360 c0 -14 2 -19 5 -12 2 6 2 18 0 25 -3 6 -5 1 -5 -13z"/>
<path d="M3953 2353 c-15 -5 -17 -23 -4 -23 5 0 11 7 15 15 3 8 4 15 3 14 -1
0 -8 -3 -14 -6z"/>
<path d="M3975 2330 c3 -5 8 -10 11 -10 2 0 4 5 4 10 0 6 -5 10 -11 10 -5 0
-7 -4 -4 -10z"/>
<path d="M4031 2324 c0 -11 3 -14 6 -6 3 7 2 16 -1 19 -3 4 -6 -2 -5 -13z"/>
<path d="M4540 2331 c0 -5 5 -13 10 -16 6 -3 10 -2 10 4 0 5 -4 13 -10 16 -5
3 -10 2 -10 -4z"/>
<path d="M4001 2314 c0 -11 3 -14 6 -6 3 7 2 16 -1 19 -3 4 -6 -2 -5 -13z"/>
<path d="M4080 2320 c0 -5 5 -10 10 -10 6 0 10 5 10 10 0 6 -4 10 -10 10 -5 0
-10 -4 -10 -10z"/>
<path d="M4045 2279 c-8 -13 -6 -15 23 -23 26 -9 32 18 6 28 -21 8 -22 8 -29
-5z"/>
<path d="M3811 2262 c-8 -14 -6 -19 5 -19 7 0 14 9 14 19 0 10 -2 18 -5 18 -2
0 -9 -8 -14 -18z"/>
<path d="M3850 2270 c0 -5 5 -10 10 -10 6 0 10 5 10 10 0 6 -4 10 -10 10 -5 0
-10 -4 -10 -10z"/>
<path d="M3891 2265 c0 -11 6 -30 14 -42 17 -24 56 -38 48 -17 -3 8 -11 14
-19 14 -8 0 -14 7 -14 16 0 8 -4 13 -9 9 -5 -3 -12 5 -14 17 -4 20 -4 21 -6 3z"/>
<path d="M3950 2262 c0 -12 19 -26 26 -19 2 2 -2 10 -11 17 -9 8 -15 8 -15 2z"/>
<path d="M4000 2247 c0 -12 35 -57 45 -57 7 0 -1 25 -15 48 -16 25 -30 29 -30
9z"/>
<path d="M4088 2243 c-20 -5 -24 -28 -8 -38 6 -3 13 2 17 12 4 10 11 21 17 25
12 8 2 9 -26 1z"/>
<path d="M3846 2226 c5 -13 4 -17 -4 -12 -7 4 -12 1 -12 -8 0 -18 8 -20 30 -6
13 8 13 12 -3 27 -17 17 -18 17 -11 -1z"/>
<path d="M3836 2172 c-3 -6 -1 -14 5 -17 15 -10 25 3 12 16 -7 7 -13 7 -17 1z"/>
<path d="M3880 2161 c0 -11 -4 -22 -10 -26 -13 -8 8 -52 26 -52 19 0 18 16 -1
23 -12 5 -14 15 -9 40 3 19 3 34 0 34 -3 0 -6 -9 -6 -19z"/>
<path d="M3941 2139 c-1 -27 34 -68 47 -55 4 4 0 13 -8 19 -9 7 -21 23 -27 37
l-12 25 0 -26z"/>
<path d="M4010 2149 c0 -5 5 -7 10 -4 6 3 10 8 10 11 0 2 -4 4 -10 4 -5 0 -10
-5 -10 -11z"/>
<path d="M4067 2144 c3 -7 9 -14 14 -14 14 0 10 17 -5 23 -10 4 -13 1 -9 -9z"/>
<path d="M4110 2154 c0 -13 18 -39 24 -34 2 3 -2 14 -10 24 -8 11 -14 16 -14
10z"/>
<path d="M4150 2090 c0 -5 5 -10 11 -10 5 0 7 5 4 10 -3 6 -8 10 -11 10 -2 0
-4 -4 -4 -10z"/>
<path d="M3935 2070 c-3 -5 3 -10 14 -10 14 0 19 -5 15 -15 -3 -8 4 -29 17
-46 19 -27 20 -32 5 -26 -10 4 -15 3 -11 -3 3 -6 17 -10 31 -10 13 0 24 -4 24
-10 0 -5 5 -10 11 -10 5 0 7 5 4 10 -3 6 4 10 16 10 l22 0 -22 24 c-23 24 -23
25 -2 19 12 -3 21 -1 21 6 0 6 -11 11 -24 11 -15 0 -27 7 -31 19 -3 11 -13 22
-22 26 -14 5 -14 3 2 -15 10 -11 15 -23 12 -26 -9 -9 -35 14 -42 37 -7 20 -30
26 -40 9z"/>
<path d="M4098 1983 c7 -3 16 -2 19 1 4 3 -2 6 -13 5 -11 0 -14 -3 -6 -6z"/>
<path d="M4115 1950 c4 -13 2 -20 -7 -21 -7 0 -4 -4 7 -8 11 -5 23 -7 26 -5
12 7 -4 54 -18 54 -10 0 -12 -6 -8 -20z"/>
<path d="M3970 1939 c0 -5 4 -8 9 -4 5 3 12 1 16 -5 3 -5 11 -10 17 -10 7 0 6
6 -2 15 -14 17 -40 20 -40 4z"/>
<path d="M4060 1930 c0 -5 5 -10 10 -10 6 0 10 5 10 10 0 6 -4 10 -10 10 -5 0
-10 -4 -10 -10z"/>
<path d="M4124 1882 c-9 -14 -15 -15 -37 -5 -28 13 -35 5 -15 -15 9 -9 9 -12
-2 -12 -9 0 -5 -8 10 -22 16 -15 25 -18 28 -10 6 19 20 14 27 -9 5 -15 10 -17
20 -9 8 7 14 7 17 1 1 -5 17 -11 33 -13 17 -2 33 -7 37 -13 4 -5 10 -6 14 -3
3 4 0 14 -9 22 -8 8 -17 12 -20 9 -4 -3 -14 -2 -24 2 -17 7 -17 8 2 15 17 7
17 9 3 9 -10 1 -18 6 -18 13 0 6 -6 4 -13 -6 -12 -16 -15 -16 -42 -2 -19 10
-24 16 -13 16 11 0 15 5 12 15 -7 18 17 20 35 3 11 -10 12 -10 7 -1 -14 25
-41 33 -52 15z"/>
<path d="M4878 1253 c7 -3 16 -2 19 1 4 3 -2 6 -13 5 -11 0 -14 -3 -6 -6z"/>
<path d="M4950 1110 c-9 -6 -10 -10 -3 -10 6 0 15 5 18 10 8 12 4 12 -15 0z"/>
<path d="M3906 1921 c-3 -5 1 -11 9 -14 9 -4 12 -1 8 9 -6 16 -10 17 -17 5z"/>
<path d="M3938 1878 c9 -9 15 -9 24 0 9 9 7 12 -12 12 -19 0 -21 -3 -12 -12z"/>
<path d="M4535 760 c-3 -5 -2 -10 4 -10 5 0 13 5 16 10 3 6 2 10 -4 10 -5 0
-13 -4 -16 -10z"/>
<path d="M4435 750 c3 -5 8 -10 11 -10 2 0 4 5 4 10 0 6 -5 10 -11 10 -5 0 -7
-4 -4 -10z"/>
<path d="M4460 741 c0 -6 5 -13 10 -16 6 -3 10 1 10 9 0 9 -4 16 -10 16 -5 0
-10 -4 -10 -9z"/>
<path d="M4573 672 c-7 -4 -9 -13 -4 -21 6 -10 10 -9 15 5 8 20 4 25 -11 16z"/>
<path d="M4590 584 c0 -8 5 -12 10 -9 6 3 10 10 10 16 0 5 -4 9 -10 9 -5 0
-10 -7 -10 -16z"/>
<path d="M3817 533 c-10 -9 -9 -23 1 -23 5 0 9 7 9 15 0 17 -1 18 -10 8z"/>
<path d="M3751 484 c0 -11 3 -14 6 -6 3 7 2 16 -1 19 -3 4 -6 -2 -5 -13z"/>
<path d="M3780 486 c0 -2 7 -9 15 -16 9 -7 15 -8 15 -2 0 5 -7 12 -15 16 -8 3
-15 4 -15 2z"/>
<path d="M590 3799 c0 -11 4 -18 10 -14 5 3 7 12 3 20 -7 21 -13 19 -13 -6z"/>
<path d="M590 3259 c0 -11 4 -18 10 -14 5 3 7 12 3 20 -7 21 -13 19 -13 -6z"/>
</g>
</svg>
